<?xml version="1.0" encoding="UTF-8"?>
<!-- Generator: visioncortex VTracer 0.6.3 -->
<svg version="1.1" xmlns="http://www.w3.org/2000/svg" width="1280" height="1280">
<path d="M0 0 C3.33 3.6 4.95 6.34 5.2 11.39 C5.86 11.39 6.52 11.39 7.2 11.39 C8.45 12.87 9.7 14.35 10.88 15.89 C12.32 17.66 12.32 17.66 15.2 19.39 C15.2 20.05 15.2 20.71 15.2 21.39 C15.86 21.39 16.52 21.39 17.2 21.39 C18.32 22.48 19.43 23.58 20.52 24.7 C25.33 29.54 30.5 34.07 35.82 38.33 C37 39.35 37 39.35 38.2 40.39 C38.2 41.05 38.2 41.71 38.2 42.39 C38.86 42.39 39.52 42.39 40.2 42.39 C40.2 43.05 40.2 43.71 40.2 44.39 C40.78 44.66 41.36 44.93 41.96 45.21 C44.23 46.41 46 47.73 47.95 49.39 C48.56 49.91 49.18 50.43 49.81 50.96 C51.2 52.39 51.2 52.39 51.2 54.39 C51.77 54.65 52.34 54.91 52.93 55.18 C55.41 56.51 57.33 58.05 59.45 59.89 C60.16 60.5 60.86 61.11 61.59 61.74 C63.2 63.39 63.2 63.39 63.2 65.39 C63.78 65.65 64.37 65.91 64.97 66.17 C67.39 67.5 68.93 68.96 70.82 70.96 C73.24 73.53 73.24 73.53 76.2 75.39 C76.2 76.05 76.2 76.71 76.2 77.39 C77.19 77.72 78.18 78.05 79.2 78.39 C79.2 79.05 79.2 79.71 79.2 80.39 C79.78 80.66 80.35 80.93 80.95 81.21 C83.25 82.42 85.22 83.7 87.2 85.39 C87.2 86.05 87.2 86.71 87.2 87.39 C87.78 87.65 88.36 87.9 88.96 88.16 C91.44 89.53 93 91.04 94.95 93.08 C99.69 97.95 104.71 102.4 110.01 106.64 C111.89 108.15 113.63 109.58 115.2 111.39 C115.2 112.05 115.2 112.71 115.2 113.39 C115.74 113.62 116.28 113.85 116.83 114.08 C124.72 118.46 133.58 127.09 137.2 135.39 C138.93 144.48 140.52 156.33 135.2 164.39 C132.1 166.84 129.16 168.2 125.2 168.39 C121.6 166.95 118.56 165.51 116.2 162.39 C115.47 159.04 115.47 159.04 115.01 155.21 C114.77 153.3 114.77 153.3 114.53 151.35 C114.42 150.38 114.31 149.4 114.2 148.39 C111.23 147.73 108.26 147.07 105.2 146.39 C105.21 147.31 105.23 148.22 105.25 149.16 C105.3 152.56 105.34 155.96 105.36 159.36 C105.38 160.83 105.4 162.3 105.43 163.77 C105.46 165.89 105.48 168.01 105.49 170.12 C105.51 171.4 105.52 172.67 105.54 173.98 C105.17 177.65 104.41 179.48 102.2 182.39 C99.01 184.74 96.18 186.21 92.2 186.39 C89.73 185.58 87.55 184.55 85.2 183.39 C85.2 182.73 85.2 182.07 85.2 181.39 C84.54 181.39 83.88 181.39 83.2 181.39 C81.67 176.38 81.77 171.12 81.48 165.93 C81.27 163.24 80.98 160.95 80.2 158.39 C79.5 158.29 78.8 158.19 78.07 158.08 C73.6 157.01 70.28 155.39 66.89 152.27 C64.88 148.85 64.6 146.2 64.38 142.29 C64.4 140.38 64.4 140.38 63.2 139.39 C61.04 139.02 58.87 138.7 56.7 138.39 C50.31 137.51 50.31 137.51 49.2 136.39 C47.02 136.16 44.83 135.98 42.64 135.83 C41.44 135.75 40.24 135.66 39.01 135.58 C38.08 135.52 37.15 135.46 36.2 135.39 C36.26 136.61 36.32 137.83 36.39 139.08 C36.36 143.03 35.9 145.35 33.2 148.39 C29.95 150.39 29.95 150.39 26.2 151.39 C22.24 150.21 18.58 148.9 16.2 145.39 C15.47 143.08 14.8 140.75 14.2 138.39 C13.87 137.73 13.54 137.07 13.2 136.39 C11.55 136.39 9.9 136.39 8.2 136.39 C7.65 140.3 7.18 143.88 7.32 147.83 C7.14 153.18 5.93 158.2 2.57 162.46 C-1.28 163.98 -4.74 164.23 -8.8 163.39 C-11.63 161.9 -13.28 160.21 -14.8 157.39 C-15.34 154.74 -15.55 152.27 -15.6 149.57 C-15.59 147.18 -15.59 147.18 -17.8 145.39 C-20.4 145.71 -20.4 145.71 -22.8 146.39 C-22.91 147.06 -23.02 147.72 -23.13 148.41 C-24.22 154.46 -25.34 158.94 -29.8 163.39 C-33.91 164.01 -37.64 163.99 -41.36 162.08 C-42.8 160.39 -42.8 160.39 -42.8 157.39 C-43.46 157.39 -44.12 157.39 -44.8 157.39 C-44.97 154.96 -45.14 152.52 -45.3 150.08 C-45.35 149.36 -45.4 148.63 -45.45 147.88 C-45.77 142.78 -45.84 137.74 -45.64 132.63 C-45.82 130.12 -46.54 128.55 -47.8 126.39 C-49.45 126.72 -51.1 127.05 -52.8 127.39 C-52.81 128.21 -52.82 129.03 -52.83 129.87 C-52.88 133.59 -52.97 137.3 -53.05 141.02 C-53.06 142.3 -53.08 143.59 -53.09 144.91 C-53.4 156.82 -53.4 156.82 -57.8 161.39 C-61.49 163.86 -64.51 164.08 -68.8 163.39 C-72.35 161.23 -74.37 159.27 -75.8 155.39 C-76.13 152.42 -76.17 149.46 -76.21 146.47 C-76.23 145.61 -76.25 144.75 -76.27 143.87 C-76.33 141.13 -76.38 138.39 -76.43 135.64 C-76.46 133.78 -76.5 131.92 -76.54 130.06 C-76.64 125.51 -76.72 120.95 -76.8 116.39 C-77.89 115.91 -78.97 115.42 -80.09 114.92 C-80.7 114.65 -81.31 114.38 -81.94 114.09 C-84.75 113.04 -87.44 112.94 -90.43 112.83 C-96.32 112.6 -96.32 112.6 -99.2 111.37 C-102.84 110 -105.92 110.26 -109.8 110.39 C-109.79 111.25 -109.79 111.25 -109.77 112.12 C-109.73 114.73 -109.7 117.34 -109.68 119.96 C-109.66 120.85 -109.64 121.75 -109.62 122.67 C-109.58 129.36 -109.89 134.75 -113.93 140.33 C-117.94 143.21 -119.92 142.94 -124.8 142.39 C-127.64 141.55 -128.58 140.66 -130.49 138.39 C-132.34 134.15 -132.54 129.98 -132.8 125.39 C-133.68 125.19 -133.68 125.19 -134.58 124.97 C-140.47 123.44 -144.51 121.61 -147.8 116.39 C-148.19 112.84 -148.19 112.84 -148.05 109.08 C-148.01 107.83 -147.98 106.57 -147.94 105.28 C-147.89 104.33 -147.85 103.38 -147.8 102.39 C-148.46 102.39 -149.12 102.39 -149.8 102.39 C-151.43 101.02 -151.43 101.02 -152.8 99.39 C-152.8 98.73 -152.8 98.07 -152.8 97.39 C-153.79 97.06 -154.78 96.73 -155.8 96.39 C-155.8 95.73 -155.8 95.07 -155.8 94.39 C-156.46 94.39 -157.12 94.39 -157.8 94.39 C-159.05 92.82 -159.05 92.82 -160.36 90.71 C-160.8 90.02 -161.23 89.34 -161.68 88.63 C-164.86 82.28 -164.04 75.18 -162.8 68.39 C-158.72 57.64 -150.41 46.96 -141.8 39.39 C-141.14 39.39 -140.48 39.39 -139.8 39.39 C-139.58 38.82 -139.35 38.24 -139.12 37.65 C-136.23 32.72 -130.44 29.65 -125.8 26.39 C-125.19 25.97 -124.59 25.54 -123.96 25.1 C-115.87 19.45 -107.73 14.63 -98.8 10.39 C-97.06 9.5 -95.33 8.6 -93.59 7.69 C-86.82 4.2 -80.07 1.61 -72.8 -0.61 C-71.28 -1.12 -69.76 -1.64 -68.24 -2.17 C-66.76 -2.65 -65.28 -3.13 -63.8 -3.61 C-63.07 -3.86 -62.33 -4.12 -61.57 -4.39 C-44.18 -9.91 -14.83 -13.22 0 0 Z M-41.8 -1.61 C-44.8 -1.32 -47.81 -1.16 -50.82 -0.98 C-53.68 -0.62 -55.33 -0.01 -57.8 1.39 C-59.38 1.87 -60.96 2.33 -62.55 2.77 C-73.51 5.79 -73.51 5.79 -83.85 10.4 C-86.08 11.53 -88.34 12.39 -90.68 13.27 C-95.23 15.05 -99.24 17.32 -103.38 19.91 C-105.57 21.25 -107.78 22.46 -110.05 23.64 C-120.62 29.48 -130.1 37.08 -138.8 45.39 C-139.69 46.22 -140.57 47.04 -141.49 47.89 C-144.85 51.53 -147.82 55.44 -150.8 59.39 C-151.33 60.09 -151.86 60.78 -152.41 61.49 C-157.51 68.45 -158.02 75.97 -156.8 84.39 C-155.29 87.62 -153.53 90.09 -150.8 92.39 C-149.81 92.72 -148.82 93.05 -147.8 93.39 C-147.66 92.32 -147.51 91.25 -147.36 90.14 C-145.74 83.53 -141 78.58 -136.8 73.39 C-136.31 72.76 -135.82 72.12 -135.31 71.47 C-133.34 68.98 -131.31 66.99 -128.86 64.96 C-126.53 63 -125.05 61.53 -123.24 59.21 C-105.76 38.29 -75.27 25.2 -49.8 18.39 C-48.81 18.12 -47.83 17.84 -46.81 17.55 C-40.27 15.78 -33.78 14.77 -27.06 14.04 C-23.31 13.67 -23.31 13.67 -19.8 12.39 C-18.43 12.24 -17.05 12.15 -15.67 12.08 C-14.46 12.02 -14.46 12.02 -13.23 11.95 C-12.38 11.91 -11.54 11.87 -10.68 11.83 C-9.83 11.79 -8.98 11.75 -8.1 11.7 C-6 11.59 -3.9 11.49 -1.8 11.39 C-1.8 10.07 -1.8 8.75 -1.8 7.39 C-2.46 7.39 -3.12 7.39 -3.8 7.39 C-4.13 6.4 -4.46 5.41 -4.8 4.39 C-5.46 4.39 -6.12 4.39 -6.8 4.39 C-6.8 3.73 -6.8 3.07 -6.8 2.39 C-14.99 -2 -21.53 -2.91 -30.68 -2.79 C-31.64 -2.79 -32.6 -2.79 -33.59 -2.79 C-38.03 -3.17 -38.03 -3.17 -41.8 -1.61 Z M-29.68 19.39 C-30.37 19.48 -31.07 19.56 -31.78 19.65 C-35.08 19.83 -35.08 19.83 -37.8 21.39 C-40.63 21.97 -43.48 22.42 -46.33 22.89 C-48.73 23.14 -48.73 23.14 -49.8 24.39 C-50.79 24.5 -51.78 24.6 -52.8 24.71 C-56.57 25.22 -59.59 26.48 -63.02 28.1 C-65.19 29.11 -67.37 30.07 -69.58 31 C-76.65 34 -83.4 37.06 -89.88 41.23 C-91.8 42.39 -91.8 42.39 -94.8 43.39 C-94.8 44.05 -94.8 44.71 -94.8 45.39 C-95.38 45.52 -95.96 45.64 -96.55 45.77 C-98.82 46.4 -100.73 47.28 -102.8 48.39 C-102.8 49.05 -102.8 49.71 -102.8 50.39 C-103.35 50.63 -103.89 50.87 -104.45 51.12 C-107.39 52.72 -109.79 54.7 -112.36 56.83 C-113.31 57.61 -114.26 58.4 -115.24 59.2 C-118.16 61.66 -118.16 61.66 -120.8 64.39 C-120.8 65.05 -120.8 65.71 -120.8 66.39 C-121.35 66.61 -121.9 66.82 -122.46 67.04 C-125.62 68.87 -127.84 71.39 -130.24 74.08 C-130.72 74.63 -131.21 75.17 -131.71 75.73 C-132.66 76.8 -133.61 77.88 -134.55 78.96 C-135.56 80.12 -136.59 81.26 -137.63 82.39 C-141.12 86.57 -141.28 90.15 -141.07 95.36 C-141.01 97.39 -141.01 97.39 -139.8 98.39 C-137.8 98.44 -135.8 98.44 -133.8 98.39 C-133.68 106.14 -133.68 106.14 -134.8 108.39 C-137.86 109.02 -137.86 109.02 -140.8 109.39 C-141.13 112.27 -141.13 112.27 -140.8 115.39 C-138.79 117.48 -137.08 118.3 -134.36 119.27 C-130.89 120.79 -129.15 122.41 -126.8 125.39 C-126.05 127.73 -125.57 129.99 -125.16 132.41 C-124.89 134.46 -124.89 134.46 -123.8 136.39 C-121.38 136.64 -121.38 136.64 -118.8 136.39 C-116.35 132.72 -116.49 129.88 -116.46 125.62 C-116.44 124.86 -116.43 124.1 -116.41 123.32 C-116.37 120.88 -116.33 118.45 -116.3 116.02 C-116.26 112.82 -116.21 109.63 -116.14 106.43 C-116.14 105.7 -116.13 104.97 -116.13 104.22 C-116.05 100.22 -115.83 96.89 -113.8 93.39 C-105.79 90.25 -98.58 92.09 -90.36 93.77 C-87.84 94.26 -85.32 94.74 -82.8 95.23 C-81.7 95.45 -80.59 95.67 -79.46 95.9 C-76.92 96.46 -76.92 96.46 -74.8 96.39 C-74.8 97.05 -74.8 97.71 -74.8 98.39 C-73.47 100.06 -73.47 100.06 -71.8 101.39 C-71.14 101.39 -70.48 101.39 -69.8 101.39 C-69.81 102.05 -69.81 102.71 -69.82 103.39 C-69.89 110.22 -69.93 117.04 -69.97 123.87 C-69.98 126.42 -70 128.97 -70.03 131.52 C-70.06 135.19 -70.08 138.85 -70.09 142.51 C-70.11 143.65 -70.12 144.8 -70.14 145.97 C-70.14 147.03 -70.14 148.1 -70.14 149.19 C-70.15 150.12 -70.15 151.06 -70.16 152.02 C-69.98 154.44 -69.98 154.44 -68.48 156.24 C-66.7 157.73 -66.7 157.73 -63.61 157.08 C-62.69 156.86 -61.76 156.63 -60.8 156.39 C-60.78 155.56 -60.76 154.73 -60.74 153.87 C-60.66 150.78 -60.58 147.69 -60.48 144.6 C-60.43 142.6 -60.38 140.61 -60.33 138.61 C-60.29 137.36 -60.25 136.1 -60.21 134.81 C-60.17 133.08 -60.17 133.08 -60.12 131.31 C-59.8 128.39 -59.8 128.39 -57.8 125.39 C-57.8 124.4 -57.8 123.41 -57.8 122.39 C-53.97 120.59 -51.03 119.87 -46.8 120.39 C-43.63 122.49 -41.92 124.22 -39.8 127.39 C-39.53 130.17 -39.53 130.17 -39.49 133.49 C-39.47 134.68 -39.44 135.88 -39.42 137.11 C-39.38 139.63 -39.35 142.16 -39.32 144.68 C-39.28 146.47 -39.28 146.47 -39.24 148.3 C-39.22 149.95 -39.22 149.95 -39.2 151.62 C-39.02 154.41 -39.02 154.41 -37.4 156.29 C-35.84 157.62 -35.84 157.62 -33.74 157.21 C-31.61 156.46 -31.61 156.46 -29.8 154.39 C-29.45 152.36 -29.45 152.36 -29.36 150.08 C-28.98 146.15 -28.6 143.38 -25.8 140.39 C-20.98 139.03 -17.24 138.98 -12.8 141.39 C-11.45 143.84 -10.62 145.78 -9.8 148.39 C-9.38 149.61 -9.38 149.61 -8.96 150.86 C-8.22 153.03 -7.5 155.21 -6.8 157.39 C-4.38 157.64 -4.38 157.64 -1.8 157.39 C0.64 153.73 0.57 150.77 0.7 146.52 C0.98 137.46 0.98 137.46 3.2 133.39 C4.19 132.73 5.18 132.07 6.2 131.39 C6.2 130.73 6.2 130.07 6.2 129.39 C11.75 129.77 15.31 130.05 19.2 134.39 C20.39 137.96 20.39 137.96 21.2 141.39 C22.19 142.88 22.19 142.88 23.2 144.39 C25.78 144.64 25.78 144.64 28.2 144.39 C30 140.51 30.47 137.29 30.64 133.02 C30.98 127.75 31.56 123.97 34.2 119.39 C39.85 115.63 47.27 116.96 53.77 117.93 C60.44 119.32 65.2 120.69 69.64 126.18 C70.2 127.03 70.2 127.03 70.76 127.89 C72.29 130.18 73.43 131.59 75.57 133.39 C77.2 135.39 77.2 135.39 76.95 139.14 C76.58 140.75 76.58 140.75 76.2 142.39 C74.88 142.72 73.56 143.05 72.2 143.39 C71.9 146.24 71.9 146.24 73.2 149.39 C77.22 152.11 81.62 153.87 86.2 155.39 C86.26 156.99 86.26 156.99 86.31 158.61 C86.57 169.41 86.57 169.41 90.2 179.39 C92.62 180.8 92.62 180.8 95.2 180.39 C96.99 179.42 96.99 179.42 98.2 177.39 C98.47 174.74 98.57 172.31 98.54 169.66 C98.55 168.1 98.56 166.54 98.57 164.98 C98.58 162.53 98.57 160.08 98.56 157.64 C98.55 155.27 98.57 152.9 98.6 150.53 C98.58 149.81 98.57 149.08 98.56 148.33 C98.64 142.59 100.27 140.28 104.2 136.39 C107.35 134.82 109.72 135.05 113.2 135.39 C117.54 137.56 117.54 137.56 119.2 140.39 C119.74 143.69 119.89 146.88 120 150.22 C120.31 155.16 121.64 158.84 125.2 162.39 C127.31 162.08 127.31 162.08 129.2 161.39 C129.2 160.73 129.2 160.07 129.2 159.39 C129.86 159.39 130.52 159.39 131.2 159.39 C131.29 155.83 131.34 152.27 131.39 148.71 C131.42 147.2 131.42 147.2 131.46 145.65 C131.66 138.48 131.66 138.48 128.2 132.39 C127.54 132.39 126.88 132.39 126.2 132.39 C126.2 131.73 126.2 131.07 126.2 130.39 C125.54 130.39 124.88 130.39 124.2 130.39 C123.87 129.4 123.54 128.41 123.2 127.39 C122.54 127.39 121.88 127.39 121.2 127.39 C121.2 126.73 121.2 126.07 121.2 125.39 C120.54 125.39 119.88 125.39 119.2 125.39 C118.87 124.4 118.54 123.41 118.2 122.39 C115.46 119.57 115.46 119.57 112.2 117.39 C109.84 117.52 108.86 117.74 107.2 119.39 C104.37 119.69 102.76 119.75 100.32 118.21 C99.2 116.39 99.2 116.39 99.45 113.83 C100.2 111.39 100.2 111.39 101.2 109.39 C94.94 101.16 94.94 101.16 87.2 94.39 C86.54 94.39 85.88 94.39 85.2 94.39 C85.2 93.73 85.2 93.07 85.2 92.39 C83.87 90.73 83.87 90.73 82.2 89.39 C81.54 89.39 80.88 89.39 80.2 89.39 C80.2 88.73 80.2 88.07 80.2 87.39 C78.75 85.89 78.75 85.89 76.82 84.33 C72.54 80.71 68.42 76.93 64.3 73.12 C62.39 71.18 62.39 71.18 60.2 71.39 C60.2 70.73 60.2 70.07 60.2 69.39 C58.75 67.89 58.75 67.89 56.82 66.33 C53.47 63.48 50.16 60.59 46.89 57.64 C45.66 56.54 45.66 56.54 44.4 55.41 C43.07 54.19 41.77 52.94 40.53 51.63 C39.26 50.17 39.26 50.17 37.2 50.39 C37.2 49.73 37.2 49.07 37.2 48.39 C35.61 46.79 35.61 46.79 33.57 45.14 C30.86 42.85 28.29 40.52 25.82 37.96 C23.57 35.16 23.57 35.16 21.2 35.39 C21.2 34.73 21.2 34.07 21.2 33.39 C19.56 31.92 17.86 30.51 16.14 29.14 C12.76 26.44 9.4 23.74 6.14 20.89 C-2.44 13.59 -18.95 18.09 -29.68 19.39 Z M-109.8 99.39 C-109.48 101.5 -109.48 101.5 -108.8 103.39 C-108.11 103.51 -107.43 103.63 -106.72 103.75 C-103.62 104.27 -100.52 104.8 -97.43 105.33 C-96.35 105.51 -95.27 105.7 -94.15 105.88 C-93.12 106.06 -92.09 106.24 -91.03 106.42 C-90.07 106.58 -89.12 106.75 -88.14 106.91 C-85.8 107.39 -85.8 107.39 -83.8 108.39 C-81.47 108.43 -79.13 108.44 -76.8 108.39 C-76.47 107.07 -76.14 105.75 -75.8 104.39 C-81.61 99.64 -86.62 98.78 -94.04 98.54 C-96.8 98.39 -96.8 98.39 -98.8 97.39 C-100.3 97.27 -101.8 97.22 -103.3 97.21 C-104.09 97.19 -104.89 97.18 -105.71 97.16 C-108.02 97.2 -108.02 97.2 -109.8 99.39 Z M38.2 122.39 C37.87 124.04 37.54 125.69 37.2 127.39 C38.09 127.68 38.97 127.97 39.89 128.27 C43.2 129.39 43.2 129.39 45.53 130.43 C48.52 131.51 51.09 131.77 54.26 131.96 C57.7 132.17 60.88 132.43 64.2 133.39 C65.53 130.39 65.53 130.39 64.2 127.39 C63.54 127.39 62.88 127.39 62.2 127.39 C62.2 126.73 62.2 126.07 62.2 125.39 C54.13 122 46.82 122.09 38.2 122.39 Z " fill="#070B0A" transform="translate(653.80078125,584.60546875)"/>
<path d="M0 0 C0.88 -0.01 1.75 -0.01 2.65 -0.02 C4.03 0 4.03 0 5.43 0.02 C6.37 0.03 7.31 0.04 8.28 0.05 C17.8 0.27 26.08 1.39 33.65 7.58 C37.72 12.04 40.02 18.58 40.62 24.52 C40.28 28.74 39.15 31.46 37.28 35.19 C35.66 38.86 35.02 41.32 36.05 45.26 C36.42 46.21 36.79 47.17 37.18 48.15 C37.55 49.11 37.92 50.08 38.3 51.07 C39.1 53.32 39.1 53.32 40.3 54.4 C40.77 58.47 40.96 60.57 38.37 63.84 C34.25 65.94 30.83 66.61 26.3 65.4 C22.67 62.43 21.27 58.45 19.93 54.09 C19.32 52.07 19.32 52.07 18.3 50.4 C14.36 48.68 11.61 48.4 7.3 48.4 C7.34 48.97 7.37 49.54 7.41 50.12 C7.61 55.74 6.9 59.41 4.3 64.4 C2.58 66.13 0.35 65.69 -2.01 65.77 C-2.97 65.82 -3.94 65.87 -4.93 65.92 C-7.7 65.4 -7.7 65.4 -9.84 63.49 C-12.46 59.12 -12.23 55.49 -12.16 50.49 C-12.16 49.52 -12.15 48.56 -12.15 47.57 C-12.15 45.53 -12.13 43.49 -12.11 41.45 C-12.07 38.37 -12.07 35.29 -12.07 32.21 C-11.99 8.7 -11.99 8.7 -9.7 3.4 C-6.49 0.91 -4.03 0.02 0 0 Z M7.3 17.4 C5.98 20.04 6.21 22.08 6.24 25.02 C6.26 26.8 6.28 28.57 6.3 30.4 C10.92 30.4 15.54 30.4 20.3 30.4 C21.29 28.42 22.28 26.44 23.3 24.4 C22.14 21.18 21.04 19.84 18.12 18.09 C14.4 17.18 11.12 17.27 7.3 17.4 Z " fill="#070B0A" transform="translate(323.6953125,790.6015625)"/>
<path d="M0 0 C1.64 1.04 1.64 1.04 3.89 2.91 C3.89 3.57 3.89 4.23 3.89 4.91 C4.88 5.24 5.87 5.57 6.89 5.91 C8.08 8.48 8.08 8.48 8.89 10.91 C9.55 10.91 10.21 10.91 10.89 10.91 C14.1 17.02 14.47 22.38 14.46 29.23 C14.46 30.25 14.46 31.28 14.45 32.33 C14.3 38.93 13.59 43.88 9.6 49.34 C7.89 50.91 7.89 50.91 5.75 51.96 C3.54 52.82 3.54 52.82 2.89 55.91 C2.23 55.91 1.57 55.91 0.89 55.91 C0.89 56.57 0.89 57.23 0.89 57.91 C-7.98 62.68 -16.76 64.61 -26.61 61.91 C-36.27 58.28 -43.19 50.74 -47.71 41.72 C-49.4 37.67 -49.61 33.95 -49.54 29.6 C-49.53 28.85 -49.53 28.11 -49.52 27.34 C-49.23 17.76 -46.09 11.38 -39.69 4.31 C-38.11 2.91 -38.11 2.91 -36.11 2.91 C-36.11 2.25 -36.11 1.59 -36.11 0.91 C-25.09 -7.53 -11.69 -6.03 0 0 Z M-28.73 17.35 C-32.32 21.61 -32.85 25.72 -32.6 31.19 C-31.83 35.45 -29.97 38.69 -27.11 41.91 C-22.5 44.99 -17.48 45.25 -12.04 44.48 C-11.08 44.2 -11.08 44.2 -10.11 43.91 C-10.11 43.25 -10.11 42.59 -10.11 41.91 C-9.21 41.57 -9.21 41.57 -8.29 41.23 C-5.43 39.51 -4.59 37.9 -3.11 34.91 C-2.27 29.8 -1.9 24.36 -4.24 19.62 C-7.24 15.93 -10.62 13.57 -15.11 11.91 C-20.63 11.91 -24.58 13.68 -28.73 17.35 Z " fill="#070B0A" transform="translate(496.10546875,795.0859375)"/>
<path d="M0 0 C1.06 -0.02 2.12 -0.04 3.21 -0.06 C12.28 -0.11 20.32 1.26 27.44 7.25 C32.13 12.76 34.24 19.04 34.44 26.25 C33.6 31.14 32.19 35.12 29.44 39.25 C29.6 43.48 30.5 46.59 32.5 50.25 C34.52 54.07 35.19 56.88 34.44 61.25 C32.27 63.98 30.67 65.06 27.21 65.59 C21.25 65.83 21.25 65.83 18.81 64.1 C16.35 60.79 15.29 56.83 13.91 52.96 C12.66 50.13 12.66 50.13 10.15 48.82 C6.95 48.15 4.6 48.52 1.44 49.25 C1.27 50.61 1.27 50.61 1.11 51.99 C0.95 53.17 0.79 54.35 0.62 55.56 C0.47 56.73 0.32 57.91 0.17 59.11 C-0.86 63.51 -0.86 63.51 -3.56 65.25 C-5.9 65.72 -5.9 65.72 -8.5 65.75 C-9.35 65.78 -10.21 65.81 -11.09 65.84 C-13.56 65.25 -13.56 65.25 -15.68 63.45 C-18.55 58.57 -18.13 53.94 -18.09 48.38 C-18.1 47.22 -18.1 46.07 -18.11 44.88 C-18.11 42.44 -18.1 40 -18.08 37.56 C-18.06 33.83 -18.08 30.1 -18.11 26.37 C-18.11 24 -18.1 21.63 -18.09 19.25 C-18.1 18.14 -18.11 17.03 -18.12 15.88 C-18.04 9.73 -17.76 5.89 -13.56 1.25 C-9.54 -0.76 -4.43 0.02 0 0 Z M1.44 17.25 C-0.22 22.12 -0.58 25.24 0.44 30.25 C2.73 30.33 5.02 30.39 7.31 30.44 C8.59 30.47 9.86 30.51 11.18 30.54 C12.25 30.45 13.33 30.35 14.44 30.25 C16.6 27 16.65 26.65 16.06 23.06 C15.86 21.8 15.65 20.55 15.44 19.25 C10.56 17.66 6.63 17.04 1.44 17.25 Z " fill="#070B0A" transform="translate(846.5625,790.75)"/>
<path d="M0 0 C0.89 -0 1.79 -0 2.7 -0 C4.59 -0 6.48 0.01 8.36 0.03 C11.24 0.06 14.12 0.05 17 0.04 C18.83 0.04 20.67 0.05 22.5 0.06 C23.36 0.06 24.22 0.06 25.1 0.05 C29.8 0.13 33.03 0.4 36.82 3.5 C37.59 5.62 37.59 5.62 37.75 7.93 C37.82 8.7 37.9 9.46 37.97 10.24 C37.79 12.91 37.38 14.32 35.82 16.5 C31.64 18.94 27.33 18.77 22.63 18.68 C21.88 18.68 21.13 18.67 20.36 18.66 C14.8 18.59 9.34 18.2 3.82 17.5 C3.82 19.81 3.82 22.12 3.82 24.5 C4.89 24.47 5.96 24.45 7.07 24.43 C8.51 24.41 9.94 24.39 11.38 24.37 C12.08 24.35 12.79 24.34 13.51 24.32 C18.33 24.28 22.28 24.82 26.82 26.5 C28.75 29.39 28.83 31.1 28.69 34.56 C27.69 37.93 26.51 39.29 23.82 41.5 C21.52 42.64 20.23 42.61 17.68 42.59 C16.88 42.59 16.07 42.59 15.24 42.58 C13.98 42.57 13.98 42.57 12.69 42.56 C11.42 42.55 11.42 42.55 10.12 42.54 C8.02 42.53 5.92 42.52 3.82 42.5 C3.82 44.48 3.82 46.46 3.82 48.5 C4.7 48.47 5.59 48.44 6.51 48.42 C9.81 48.33 13.11 48.27 16.41 48.22 C17.84 48.2 19.27 48.16 20.7 48.12 C22.75 48.06 24.81 48.03 26.86 48.01 C28.72 47.97 28.72 47.97 30.61 47.93 C33.82 48.5 33.82 48.5 36.23 50.86 C38.05 53.89 38.21 55.23 37.75 58.68 C37.61 59.97 37.61 59.97 37.47 61.29 C36.82 63.5 36.82 63.5 33.82 65.5 C31.81 65.76 31.81 65.76 29.48 65.77 C28.61 65.78 27.74 65.79 26.84 65.8 C25.91 65.8 24.97 65.8 24 65.8 C23.04 65.8 22.07 65.81 21.08 65.81 C19.04 65.82 17 65.82 14.96 65.81 C11.83 65.81 8.7 65.83 5.57 65.86 C3.59 65.86 1.61 65.86 -0.37 65.86 C-1.78 65.87 -1.78 65.87 -3.21 65.89 C-4.08 65.88 -4.95 65.87 -5.85 65.87 C-6.62 65.87 -7.38 65.87 -8.17 65.87 C-10.78 65.38 -11.63 64.64 -13.18 62.5 C-14.85 55.69 -14.31 48.13 -14.2 41.16 C-14.19 40.12 -14.17 39.08 -14.16 38 C-14.13 35.82 -14.09 33.64 -14.05 31.45 C-14 28.11 -13.97 24.77 -13.94 21.42 C-13.9 19.29 -13.87 17.16 -13.83 15.04 C-13.82 14.04 -13.82 13.04 -13.81 12.01 C-13.72 8.1 -13.64 5.31 -11.72 1.87 C-7.86 -0.22 -4.32 -0.06 0 0 Z " fill="#070B0A" transform="translate(788.18359375,790.50390625)"/>
<path d="M0 0 C1.24 0.01 1.24 0.01 2.51 0.03 C5.15 0.06 7.8 0.12 10.44 0.19 C11.32 0.21 12.2 0.23 13.1 0.25 C15.67 0.31 18.24 0.4 20.81 0.5 C21.6 0.52 22.39 0.54 23.21 0.57 C27.71 0.78 30.76 1.31 34.44 4.19 C36.1 7.52 36.17 10.61 35.44 14.19 C33.43 17.78 30.95 20.94 28.44 24.19 C27.65 25.39 26.88 26.59 26.12 27.81 C25.57 28.6 25.01 29.38 24.44 30.19 C23.78 30.19 23.12 30.19 22.44 30.19 C22.19 30.9 21.95 31.61 21.69 32.34 C20.28 35.55 18.49 38.02 16.38 40.81 C13.39 44.73 13.39 44.73 11.44 49.19 C12.05 49.17 12.66 49.15 13.29 49.12 C16.07 49.04 18.84 48.99 21.62 48.94 C22.58 48.9 23.54 48.87 24.53 48.84 C28.9 48.78 31.69 48.78 35.58 50.89 C37.76 53.59 38.06 54.82 37.94 58.25 C37.93 59.11 37.92 59.96 37.91 60.85 C37.34 63.67 36.67 64.43 34.44 66.19 C32.35 66.57 32.35 66.57 29.92 66.58 C28.56 66.59 28.56 66.59 27.16 66.6 C25.69 66.6 25.69 66.6 24.19 66.59 C22.67 66.59 22.67 66.59 21.13 66.59 C18.99 66.6 16.86 66.59 14.72 66.58 C11.45 66.56 8.18 66.58 4.91 66.6 C2.83 66.6 0.76 66.59 -1.31 66.59 C-2.29 66.59 -3.28 66.6 -4.29 66.6 C-5.2 66.59 -6.11 66.59 -7.05 66.58 C-7.85 66.57 -8.65 66.57 -9.48 66.57 C-12.1 66.09 -12.96 65.3 -14.56 63.19 C-15.78 58.97 -15.95 56.96 -13.96 53 C-11.31 48.62 -8.28 44.5 -5.25 40.38 C-4.09 38.79 -2.94 37.2 -1.78 35.61 C-0.95 34.47 -0.95 34.47 -0.11 33.31 C1.86 30.61 3.81 27.91 5.75 25.19 C6.55 24.07 6.55 24.07 7.36 22.94 C8.61 21.25 8.61 21.25 8.44 19.19 C6.7 19.11 6.7 19.11 4.93 19.04 C3.39 18.96 1.85 18.89 0.31 18.81 C-0.45 18.78 -1.21 18.75 -1.99 18.72 C-6.51 18.49 -10.3 17.86 -14.56 16.19 C-16 8.26 -16 8.26 -14.38 4.25 C-10.3 -0.39 -5.87 -0.1 0 0 Z " fill="#070B0A" transform="translate(733.5625,789.8125)"/>
<path d="M0 0 C1.34 -0 1.34 -0 2.71 -0 C4.6 0 6.49 0.01 8.38 0.03 C11.27 0.05 14.16 0.05 17.05 0.04 C18.89 0.05 20.73 0.05 22.56 0.06 C23.43 0.06 24.29 0.06 25.18 0.06 C25.99 0.07 26.79 0.08 27.63 0.09 C28.69 0.1 28.69 0.1 29.77 0.1 C32.17 0.41 33.73 1.08 35.78 2.36 C38.25 6.06 38.09 7.99 37.78 12.36 C36.78 14.8 36.78 14.8 35.78 16.36 C35.12 16.36 34.46 16.36 33.78 16.36 C33.55 17.07 33.31 17.77 33.07 18.49 C31.54 21.9 29.56 24.4 27.22 27.3 C21.9 34.01 17.3 41.09 12.78 48.36 C13.39 48.35 14 48.33 14.63 48.32 C17.41 48.25 20.19 48.21 22.97 48.18 C23.93 48.15 24.89 48.13 25.88 48.1 C29.93 48.06 33.1 48.11 36.93 49.53 C38.78 51.36 38.78 51.36 39.38 53.96 C39.33 55.4 39.33 55.4 39.28 56.86 C39.27 57.82 39.26 58.78 39.25 59.77 C38.71 62.78 38.16 63.51 35.78 65.36 C33.69 65.74 33.69 65.74 31.27 65.75 C29.9 65.77 29.9 65.77 28.5 65.78 C27.03 65.77 27.03 65.77 25.53 65.76 C24.02 65.77 24.02 65.77 22.47 65.77 C20.34 65.77 18.2 65.77 16.07 65.75 C12.79 65.74 9.52 65.75 6.25 65.77 C4.18 65.77 2.1 65.77 0.03 65.76 C-0.95 65.77 -1.93 65.77 -2.94 65.78 C-3.85 65.77 -4.76 65.76 -5.7 65.75 C-6.5 65.75 -7.31 65.75 -8.13 65.74 C-10.76 65.27 -11.61 64.46 -13.22 62.36 C-14.47 58.77 -14.7 56.45 -13.15 52.93 C-10.49 48.35 -7.46 44.33 -3.93 40.41 C1.74 33.63 6.48 26.06 10.78 18.36 C9.04 18.29 9.04 18.29 7.27 18.21 C5.73 18.14 4.2 18.06 2.66 17.99 C1.9 17.96 1.14 17.93 0.35 17.89 C-4.14 17.66 -8.03 17.17 -12.22 15.36 C-14.24 12.29 -14.22 10.42 -14.09 6.74 C-13.22 3.36 -13.22 3.36 -11.74 1.68 C-7.9 -0.32 -4.27 -0.05 0 0 Z " fill="#070B0A" transform="translate(676.21875,790.63671875)"/>
<path d="M0 0 C1.08 -0 2.16 -0.01 3.27 -0.01 C4.95 0.01 4.95 0.01 6.67 0.02 C7.78 0.01 8.89 0 10.03 -0.01 C19.13 0.02 26.13 1.57 33.42 7.4 C38.31 12.95 40.92 18.7 40.75 26.25 C40.13 30.29 38.28 33.79 36.42 37.4 C36.13 38.08 35.83 38.76 35.53 39.47 C32.8 44.22 27.48 46.82 22.37 48.26 C17.05 49.24 12.76 49.48 7.42 48.4 C7.45 49.13 7.47 49.87 7.49 50.63 C7.52 52.09 7.52 52.09 7.55 53.59 C7.57 54.55 7.59 55.51 7.62 56.5 C7.41 59.56 6.81 61.67 5.42 64.4 C2.87 65.67 0.9 65.67 -1.95 65.77 C-2.91 65.82 -3.87 65.87 -4.85 65.92 C-7.58 65.4 -7.58 65.4 -9.72 63.47 C-12.32 59.18 -12.12 55.67 -12.04 50.74 C-12.04 49.8 -12.04 48.86 -12.04 47.9 C-12.03 45.91 -12.01 43.92 -11.99 41.94 C-11.95 38.94 -11.95 35.94 -11.95 32.94 C-11.85 5.78 -11.85 5.78 -7.85 1.59 C-5.06 0.12 -3.15 0.01 0 0 Z M6.42 19.4 C6.39 21.04 6.38 22.69 6.36 24.34 C6.35 25.25 6.34 26.17 6.32 27.11 C6.16 29.36 6.16 29.36 7.42 30.4 C9.56 30.55 11.71 30.62 13.86 30.65 C15.62 30.69 15.62 30.69 17.42 30.73 C18.41 30.62 19.4 30.51 20.42 30.4 C22.73 27.51 22.73 27.51 22.48 23.9 C21.76 20.08 21.76 20.08 18.05 18.46 C13.22 17.05 10.94 17.45 6.42 19.4 Z " fill="#070B0A" transform="translate(597.578125,790.6015625)"/>
<path d="M0 0 C6.8 2.72 9.03 7.41 11.81 13.75 C12.6 15.47 13.38 17.19 14.17 18.9 C14.56 19.76 14.95 20.62 15.35 21.5 C17.03 25.15 18.82 28.73 20.62 32.31 C20.95 32.96 21.27 33.6 21.6 34.27 C23.21 37.49 24.86 40.68 26.55 43.86 C26.88 44.48 27.21 45.11 27.55 45.75 C28.44 47.44 29.34 49.13 30.25 50.82 C31.69 54.48 31.87 57.1 31.5 61 C29.27 64.35 28.84 64.5 25.12 65.31 C24.35 65.49 23.58 65.68 22.79 65.86 C20.1 66.02 18.78 65.39 16.5 64 C16.5 63.34 16.5 62.68 16.5 62 C15.84 62 15.18 62 14.5 62 C13.18 59.03 11.86 56.06 10.5 53 C2.91 52.67 -4.68 52.34 -12.5 52 C-12.83 53.65 -13.16 55.3 -13.5 57 C-15.36 61.17 -17.07 64.41 -21.38 66.19 C-25.44 65.94 -27.9 64.91 -31.5 63 C-33.31 59.39 -32.41 55.78 -31.5 52 C-28.02 43.16 -23.42 34.79 -18.92 26.44 C-16.97 22.83 -15.09 19.21 -13.32 15.51 C-12.97 14.78 -12.63 14.06 -12.27 13.31 C-11.61 11.94 -10.96 10.56 -10.33 9.18 C-8.14 4.62 -5.52 0 0 0 Z M-2.5 30 C-2.83 32.31 -3.16 34.62 -3.5 37 C-1.1 37.68 -1.1 37.68 1.5 38 C2.16 37.34 2.82 36.68 3.5 36 C2.01 33.03 2.01 33.03 0.5 30 C-0.49 30 -1.48 30 -2.5 30 Z " fill="#070B0A" transform="translate(937.5,791)"/>
<path d="M0 0 C2.04 1.53 3.37 3 5 5 C5.5 5.5 5.5 5.5 6 6 C6.65 9.79 6 11 3.81 14.25 C1 17 1 17 -1.44 18.06 C-4.85 17.98 -6.95 16.52 -10 15 C-12.99 14.47 -15.97 14.2 -19 14 C-19 15.98 -19 17.96 -19 20 C-15.55 21.24 -12.15 22.21 -8.56 22.94 C-1.76 24.44 3.44 26.41 7.84 31.98 C9.89 35.55 10.06 38.95 10 43 C10.01 43.68 10.02 44.37 10.03 45.07 C9.76 50.93 7.06 54.9 3 59 C-3.19 63.69 -10.28 65.89 -18 65 C-25.47 63.44 -31.75 59.84 -36.7 53.99 C-38.56 51.14 -38.48 49.34 -38 46 C-35.92 42.25 -34.71 41.21 -30.56 40 C-25.34 40 -23.1 42.16 -19.06 45.25 C-16.1 47.32 -16.1 47.32 -12.62 46.75 C-11.76 46.5 -10.89 46.25 -10 46 C-9.45 43.92 -9 42.16 -9 40 C-9.96 39.81 -9.96 39.81 -10.94 39.62 C-11.95 39.42 -12.96 39.21 -14 39 C-14.68 38.89 -15.36 38.78 -16.05 38.66 C-23.1 37.37 -28.36 34.71 -33.38 29.56 C-37.46 23.12 -37.52 17.34 -36 10 C-34.19 6.56 -34.19 6.56 -32 4 C-31.42 3.28 -30.85 2.56 -30.25 1.81 C-21.6 -5.16 -9.72 -4.4 0 0 Z " fill="#070B0A" transform="translate(552,793)"/>
<path d="M0 0 C0 0.66 0 1.32 0 2 C0.66 2 1.32 2 2 2 C3.45 4.9 3.37 6.77 3 10 C0.94 13.38 0.94 13.38 -2 16 C-6.82 16.96 -10.01 15.62 -14.38 13.75 C-18.55 12.12 -20.77 11.72 -24.94 13.5 C-29.06 15.8 -31.92 18.14 -34.31 22.25 C-35.62 27.48 -34.14 32.81 -33 38 C-32.34 38 -31.68 38 -31 38 C-29.98 38.98 -28.98 39.98 -28 41 C-23.62 43.19 -17.78 42.36 -13 42 C-9.61 40.56 -9.61 40.56 -7 39 C-3.58 39.08 -2.35 39.7 0.25 41.94 C2.36 44.42 2.94 45.57 3.38 48.81 C2.87 53.13 1.34 54.31 -2 57 C-8.75 61.05 -16.41 63.09 -24.21 61.57 C-35.48 58.69 -43.64 52.55 -50 43 C-53.02 34.31 -53.98 22.64 -50.44 13.94 C-45.65 5.25 -38.92 -0.56 -29.81 -4.31 C-18.9 -6.28 -9.88 -4.94 0 0 Z " fill="#070B0A" transform="translate(441,796)"/>
<path d="M0 0 C3.24 1.74 3.82 2.47 5 6 C5.1 7.71 5.14 9.42 5.15 11.13 C5.15 12.17 5.16 13.22 5.16 14.29 C5.17 15.42 5.17 16.55 5.17 17.71 C5.17 18.87 5.17 20.03 5.18 21.23 C5.18 23.68 5.19 26.14 5.19 28.6 C5.19 32.35 5.21 36.11 5.22 39.87 C5.23 42.25 5.23 44.64 5.23 47.02 C5.24 48.15 5.24 49.27 5.25 50.43 C5.25 51.48 5.25 52.53 5.24 53.61 C5.24 54.54 5.25 55.46 5.25 56.41 C4.97 59.29 4.29 61.42 3 64 C0.39 65.3 -1.59 65.13 -4.5 65.12 C-5.48 65.13 -6.46 65.13 -7.47 65.13 C-10 65 -10 65 -12 64 C-14.41 57.59 -14.23 50.79 -14.05 44.05 C-14.03 43.03 -14.01 42.02 -13.99 40.97 C-13.94 38.84 -13.89 36.7 -13.83 34.57 C-13.75 31.31 -13.69 28.05 -13.63 24.79 C-13.58 22.71 -13.53 20.63 -13.48 18.55 C-13.47 17.58 -13.45 16.61 -13.43 15.61 C-13.29 10.77 -13.1 6.47 -11 2 C-7.31 -0.46 -4.29 -0.57 0 0 Z " fill="#070B0A" transform="translate(654,791)"/>
<path d="M0 0 C2.88 1.5 2.88 1.5 5 4 C6.09 10.13 6.16 16.2 6.17 22.41 C6.17 23.39 6.17 24.36 6.18 25.36 C6.18 27.41 6.19 29.45 6.19 31.5 C6.19 34.62 6.21 37.74 6.22 40.87 C6.23 42.86 6.23 44.86 6.23 46.85 C6.24 47.78 6.24 48.71 6.25 49.66 C6.21 60.79 6.21 60.79 2 65 C-0.28 65.27 -0.28 65.27 -2.94 65.25 C-3.81 65.26 -4.69 65.26 -5.59 65.27 C-8 65 -8 65 -11 63 C-12.09 60.07 -12.13 57.26 -12.13 54.16 C-12.13 53.2 -12.14 52.24 -12.14 51.26 C-12.14 50.23 -12.13 49.2 -12.13 48.14 C-12.13 47.07 -12.13 46.01 -12.14 44.91 C-12.14 42.65 -12.13 40.4 -12.13 38.15 C-12.13 34.71 -12.13 31.27 -12.14 27.84 C-12.14 25.65 -12.13 23.45 -12.13 21.26 C-12.13 20.24 -12.14 19.22 -12.14 18.16 C-12.09 4.3 -12.09 4.3 -9.38 1.06 C-6.01 -0.44 -3.65 -0.45 0 0 Z " fill="#070B0A" transform="translate(379,791)"/>
<path d="M0 0 C2.88 1.44 2.88 1.44 5 4 C6.44 10.32 6.16 17.1 6.17 23.55 C6.17 24.52 6.17 25.5 6.18 26.5 C6.18 28.54 6.19 30.59 6.19 32.63 C6.19 35.76 6.21 38.88 6.22 42 C6.23 44 6.23 45.99 6.23 47.98 C6.24 48.91 6.24 49.84 6.25 50.8 C6.22 59.21 6.22 59.21 4 63 C0.9 65.07 0.05 65.29 -3.5 65.31 C-4.66 65.34 -4.66 65.34 -5.84 65.36 C-8.53 64.91 -9.36 64.14 -11 62 C-11.98 59.06 -12.13 57.14 -12.15 54.07 C-12.15 52.57 -12.15 52.57 -12.16 51.04 C-12.17 49.96 -12.17 48.88 -12.17 47.76 C-12.17 46.65 -12.17 45.53 -12.18 44.39 C-12.18 42.03 -12.19 39.67 -12.19 37.31 C-12.19 33.71 -12.21 30.11 -12.22 26.51 C-12.23 24.22 -12.23 21.93 -12.23 19.64 C-12.24 18.56 -12.24 17.49 -12.25 16.38 C-12.22 6.54 -12.22 6.54 -10 2 C-6.26 -0.49 -4.43 -0.46 0 0 Z " fill="#070B0A" transform="translate(896,791)"/>
<path d="M0 0 C3.69 1.61 4.75 2.63 7 6 C7.66 6 8.32 6 9 6 C9.27 5.38 9.54 4.76 9.81 4.12 C11 2 11 2 14 0 C18.71 -0.46 21.04 -0.47 25.31 1.62 C29.33 5.17 30.8 8.12 31.38 13.44 C30.88 18.09 29.53 21.85 26.8 25.68 C24.09 27.67 21.81 27.4 18.5 27.38 C16.78 27.39 16.78 27.39 15.03 27.4 C12 27 12 27 10.09 25.6 C9 24 9 24 9 22 C8.01 22 7.02 22 6 22 C5.67 23.65 5.34 25.3 5 27 C1.14 28.09 -2.05 27.84 -6 27.26 C-8.67 26.91 -11.31 26.93 -14 27 C-14.56 24.44 -14.56 24.44 -14 21 C-12 19.32 -12 19.32 -9.5 17.62 C-6.06 15.35 -6.06 15.35 -4.4 11.78 C-4.39 9.33 -4.39 9.33 -5 6 C-5.66 6 -6.32 6 -7 6 C-7.33 7.32 -7.66 8.64 -8 10 C-9.65 10.33 -11.3 10.66 -13 11 C-14.43 4.8 -14.43 4.8 -12.69 1.56 C-8.56 -0.84 -4.66 -0.63 0 0 Z M17 4 C14.63 8.6 14.52 12.95 15 18 C15.87 20.93 15.87 20.93 17 23 C18.32 23 19.64 23 21 23 C22.48 20.05 22.21 17.35 22.25 14.06 C22.28 12.82 22.3 11.57 22.33 10.29 C22.28 7.05 22.28 7.05 20.61 5.06 C19.04 3.82 19.04 3.82 17 4 Z M5 11 C3.82 11.93 2.66 12.87 1.5 13.81 C0.53 14.6 0.53 14.6 -0.47 15.39 C-2.35 16.99 -2.35 16.99 -2 20 C0.64 20.33 3.28 20.66 6 21 C6.96 16.79 7.13 14.74 5 11 Z " fill="#070B0A" transform="translate(858,716)"/>
<path d="M0 0 C0.66 1.32 1.32 2.64 2 4 C2.99 4 3.98 4 5 4 C5.66 2.68 6.32 1.36 7 0 C10.1 -0.09 13.21 -0.14 16.31 -0.19 C17.19 -0.21 18.07 -0.24 18.98 -0.26 C20.25 -0.28 20.25 -0.28 21.55 -0.29 C22.33 -0.31 23.11 -0.32 23.92 -0.34 C26.55 0.09 27.42 0.89 29 3 C29.19 5.69 29.19 5.69 29 8 C27.35 8 25.7 8 24 8 C24 7.34 24 6.68 24 6 C23.01 6.33 22.02 6.66 21 7 C21.05 7.86 21.05 7.86 21.11 8.73 C21.26 11.3 21.41 13.87 21.56 16.44 C21.65 17.78 21.65 17.78 21.73 19.16 C21.78 20.01 21.83 20.87 21.88 21.75 C21.93 22.54 21.97 23.33 22.02 24.14 C22 26 22 26 21 27 C18.33 27.14 15.68 27.04 13 27 C12.15 24.09 11.93 21.69 12.12 18.67 C12.17 17.87 12.22 17.07 12.27 16.25 C12.32 15.42 12.38 14.6 12.44 13.75 C12.49 12.91 12.54 12.07 12.6 11.2 C12.72 9.14 12.86 7.07 13 5 C12.28 5.5 11.56 6 10.82 6.51 C7.68 8.17 6.28 8.26 2.81 7.81 C1.95 7.72 1.09 7.62 0.21 7.52 C-2 7 -2 7 -4 5 C-5.32 5 -6.64 5 -8 5 C-7.84 6.93 -7.84 6.93 -7 9 C-4.99 10.42 -4.99 10.42 -2.56 11.5 C0.98 13.18 2.62 14.27 4 18 C4.49 21.24 4.38 22.48 2.43 25.14 C-0.88 27.68 -3.07 27.44 -7.19 27.31 C-8.44 27.29 -9.69 27.26 -10.98 27.24 C-14 27 -14 27 -15 26 C-15.04 24.33 -15.04 22.67 -15 21 C-11.1 21 -8.62 21.68 -5 23 C-5.68 19.91 -5.68 19.91 -8 18.75 C-9.62 17.96 -11.25 17.17 -12.87 16.38 C-15.31 14.8 -16.01 13.7 -17 11 C-17.58 7.13 -17.3 5.49 -15.25 2.12 C-10.36 -1.07 -5.68 -0.41 0 0 Z " fill="#070B0A" transform="translate(388,716)"/>
<path d="M0 0 C1.87 2.55 2 3.81 2 7 C2.57 6.95 3.14 6.91 3.72 6.86 C9.78 6.58 13.05 7.47 18 11 C20.2 14.3 20.53 15.17 20 19 C17.62 23.85 14.89 26.19 10.07 28.3 C3.79 30.42 -0.82 28.45 -6.57 25.94 C-9.18 24.82 -9.18 24.82 -12.88 24.5 C-16 24 -16 24 -18.44 22.38 C-20.66 19 -20.63 16.96 -20 13 C-17.64 9.97 -15.95 8.33 -12.31 7.06 C-9.66 6.17 -9.66 6.17 -8.81 2.94 C-8.54 1.97 -8.28 1 -8 0 C-5.04 -1.48 -3.13 -0.85 0 0 Z M-14 14 C-13.01 15.49 -13.01 15.49 -12 17 C-9.71 17.47 -9.71 17.47 -7.06 17.4 C-5.6 17.4 -5.6 17.4 -4.1 17.41 C-2.57 17.39 -2.57 17.39 -1 17.38 C0.02 17.39 1.05 17.4 2.1 17.41 C3.08 17.41 4.06 17.4 5.06 17.4 C5.96 17.4 6.86 17.39 7.79 17.39 C8.52 17.26 9.25 17.13 10 17 C10.66 16.01 11.32 15.02 12 14 C7.49 11.4 4.2 10.59 -1 10.62 C-2.18 10.62 -3.35 10.61 -4.56 10.6 C-8.3 11.03 -10.76 12.13 -14 14 Z " fill="#070B0A" transform="translate(674,632)"/>
<path d="M0 0 C1.46 0.11 2.92 0.24 4.38 0.38 C5.59 0.48 5.59 0.48 6.84 0.59 C9 1 9 1 11 3 C13.87 3.18 16.69 3.27 19.56 3.31 C25.79 3.55 31.23 3.81 36.55 7.41 C38.74 9.82 39.18 11.87 39.2 15.08 C38.74 19.43 37.73 21.32 34.5 24.31 C25.93 28.45 15.77 25.53 7 23 C3.09 21.32 1.39 20.58 -1 17 C-0.91 14.91 -0.91 14.91 -0.5 12.62 C0.06 8.72 -0.4 6.63 -2 3 C-1.34 2.01 -0.68 1.02 0 0 Z M11.88 9.31 C10.99 9.56 10.1 9.8 9.18 10.05 C8.46 10.36 7.74 10.68 7 11 C6.67 11.99 6.34 12.98 6 14 C15.79 17.19 22.23 17.05 32 14 C31.67 13.01 31.34 12.02 31 11 C28.54 9.97 28.54 9.97 25.62 9.31 C24.65 9.06 23.67 8.81 22.66 8.55 C18.65 7.72 15.76 8.21 11.88 9.31 Z " fill="#070B0A" transform="translate(692,666)"/>
<path d="M0 0 C0.54 0.93 1.07 1.86 1.62 2.81 C4.85 7.15 7.87 7.3 13.03 8.26 C16.18 9.05 18.35 10.13 21 12 C22.37 14.74 22.13 16.97 22 20 C21.67 20.66 21.34 21.32 21 22 C20.34 22 19.68 22 19 22 C18.77 22.61 18.54 23.22 18.3 23.86 C15.89 27.84 11.32 28.81 7 30 C2.8 29.92 -0.28 28.5 -4.07 26.75 C-6.96 25.63 -9.93 25.14 -12.98 24.62 C-15.44 23.86 -16.46 23.05 -18 21 C-18.76 14.14 -18.76 14.14 -16.38 10.56 C-13.56 8.71 -11.33 8.3 -8 8 C-8 5.69 -8 3.38 -8 1 C-5.09 -0.46 -3.22 -0.45 0 0 Z M-10.09 14.03 C-10.39 14.68 -10.69 15.33 -11 16 C-10.34 16 -9.68 16 -9 16 C-9 16.66 -9 17.32 -9 18 C-5.56 18.09 -2.13 18.14 1.31 18.19 C2.29 18.21 3.27 18.24 4.27 18.26 C5.68 18.28 5.68 18.28 7.11 18.29 C7.98 18.31 8.84 18.32 9.73 18.34 C12.45 17.93 13.3 17.1 15 15 C12.38 12.25 10.21 11.75 6.56 11.57 C4.85 11.55 3.14 11.55 1.44 11.56 C0.14 11.53 0.14 11.53 -1.18 11.5 C-6.15 11.37 -6.15 11.37 -10.09 14.03 Z " fill="#070B0A" transform="translate(560,644)"/>
<path d="M0 0 C2 1.5 2 1.5 4 4.5 C3.71 8.89 2.57 11.94 0 15.5 C-3.7 17.97 -5.66 17.74 -10.06 17.69 C-11.94 17.68 -11.94 17.68 -13.85 17.67 C-17 17.5 -17 17.5 -19 16.5 C-20.56 16.37 -22.12 16.27 -23.69 16.19 C-28.84 15.69 -31.94 14.78 -36 11.5 C-37.25 8.06 -37.25 8.06 -37 4.5 C-29.29 -7.78 -11.12 -5.56 0 0 Z M-29 1.5 C-29.33 2.82 -29.66 4.14 -30 5.5 C-25.48 8.91 -21.8 8.93 -16.38 8.81 C-15.61 8.82 -14.85 8.82 -14.06 8.82 C-10.2 8.79 -8.28 8.68 -5 6.5 C-5.33 5.18 -5.66 3.86 -6 2.5 C-13.68 1.83 -21.28 1.34 -29 1.5 Z " fill="#070B0A" transform="translate(606,625.5)"/>
<path d="M0 0 C1.23 4.93 1.2 8.4 -1 13 C-3.41 15.4 -4.77 15.97 -8.18 16.4 C-30.04 16.26 -30.04 16.26 -36.33 11.08 C-38 9 -38 9 -39 6 C-36.67 -0.33 -36.67 -0.33 -34 -3 C-22.9 -6.84 -9.93 -6.62 0 0 Z M-31 2 C-31 2.99 -31 3.98 -31 5 C-26.83 7.78 -23.4 7.37 -18.5 7.38 C-17.63 7.4 -16.76 7.42 -15.87 7.45 C-10.88 7.62 -10.88 7.62 -6.91 4.98 C-6.61 4.32 -6.31 3.67 -6 3 C-9.12 0.92 -9.81 0.75 -13.34 0.77 C-14.18 0.77 -15.01 0.77 -15.87 0.78 C-17.17 0.79 -17.17 0.79 -18.5 0.81 C-19.37 0.81 -20.24 0.81 -21.13 0.81 C-26.14 0.85 -26.14 0.85 -31 2 Z " fill="#070B0A" transform="translate(646,663)"/>
<path d="M0 0 C0.66 0.66 1.32 1.32 2 2 C1.91 6.93 0.81 10.03 -2.46 13.76 C-5.25 16.01 -7.97 15.68 -11.44 15.56 C-12.48 15.53 -12.48 15.53 -13.55 15.5 C-32.46 14.63 -32.46 14.63 -38 9 C-38.82 5.93 -38.61 3.11 -38 0 C-35.21 -3.89 -31.74 -4.43 -27.25 -5.31 C-17.7 -6.64 -8.13 -5.57 0 0 Z M-31 1 C-30.36 3.03 -30.36 3.03 -29 5 C-21.75 7.02 -12.91 7.07 -6 4 C-6 2.68 -6 1.36 -6 0 C-14.13 -1.51 -23.37 -2.59 -31 1 Z " fill="#070B0A" transform="translate(662,613)"/>
<path d="M0 0 C0.69 -0.01 1.37 -0.02 2.08 -0.04 C5.82 -0.05 7.43 0.06 10.62 2.19 C10.3 3.84 9.96 5.49 9.62 7.19 C6.65 6.2 3.69 5.21 0.62 4.19 C0.62 6.5 0.62 8.81 0.62 11.19 C1.41 11.15 2.19 11.11 3 11.06 C5.62 11.19 5.62 11.19 7.62 13.19 C7.62 14.18 7.62 15.17 7.62 16.19 C5.31 16.19 3 16.19 0.62 16.19 C0.62 18.5 0.62 20.81 0.62 23.19 C4.03 22.13 6.64 21.18 9.62 19.19 C10.29 19.52 10.94 19.85 11.62 20.19 C11.3 22.5 10.96 24.81 10.62 27.19 C4.36 27.19 -1.92 27.19 -8.38 27.19 C-9.25 23.7 -9.45 21.52 -9.29 18.02 C-9.25 17.04 -9.2 16.07 -9.16 15.06 C-9.1 14.05 -9.05 13.04 -9 12 C-8.96 10.98 -8.91 9.95 -8.87 8.9 C-8.48 0.7 -8.34 0.01 0 0 Z " fill="#070B0A" transform="translate(358.375,715.8125)"/>
<path d="M0 0 C3.12 1.5 3.12 1.5 5 4 C5.52 7.26 5.78 8.93 5 12 C2.62 15 2.62 15 0 17 C-0.66 17 -1.32 17 -2 17 C-2 17.99 -2 18.98 -2 20 C0.31 20 2.62 20 5 20 C6.12 24.75 6.12 24.75 5 27 C3.56 27.03 2.13 27.05 0.69 27.06 C-0.51 27.08 -0.51 27.08 -1.74 27.1 C-4 27 -4 27 -7 26 C-7.33 26.33 -7.66 26.66 -8 27 C-10.5 27.12 -10.5 27.12 -13 27 C-14 26 -14 26 -14.34 23.65 C-14 21 -14 21 -12.07 19.23 C-11.24 18.7 -10.41 18.17 -9.56 17.62 C-6.22 15.34 -6.22 15.34 -4.18 12 C-3.87 9.88 -3.87 9.88 -4 7 C-4.99 6.67 -5.98 6.34 -7 6 C-7.33 7.32 -7.66 8.64 -8 10 C-9.65 10.33 -11.3 10.66 -13 11 C-14.43 4.8 -14.43 4.8 -12.69 1.56 C-8.54 -0.85 -4.68 -0.73 0 0 Z " fill="#070B0A" transform="translate(904,716)"/>
<path d="M0 0 C0.78 0.04 1.57 0.08 2.38 0.12 C5.43 8.57 7.95 17.07 7.38 26.12 C6.38 27.12 6.38 27.12 4.31 27.22 C3.48 27.21 2.66 27.2 1.81 27.19 C0.99 27.18 0.16 27.17 -0.69 27.16 C-1.65 27.14 -1.65 27.14 -2.62 27.12 C-2.81 26.34 -3 25.56 -3.19 24.75 C-4.46 21.73 -4.46 21.73 -8.25 20.81 C-9.36 20.59 -10.48 20.36 -11.62 20.12 C-11.25 16.89 -10.39 15.86 -8.12 13.38 C-4.97 9.83 -5.01 6.76 -4.62 2.12 C-2.62 0.12 -2.62 0.12 0 0 Z " fill="#070B0A" transform="translate(923.625,715.875)"/>
<path d="M0 0 C3.5 0.19 4.8 0.81 7.38 3.25 C9 6 9 6 8.75 8.81 C8.5 9.53 8.25 10.26 8 11 C2.64 10.4 2.64 10.4 0.12 8.81 C-1.51 6.17 -1.26 4.04 -1 1 C-0.67 0.67 -0.34 0.34 0 0 Z " fill="#070B0A" transform="translate(653,667)"/>
<path d="M0 0 C1.65 0.33 3.3 0.66 5 1 C5 4.63 5 8.26 5 12 C3.68 12.33 2.36 12.66 1 13 C-1.25 10.57 -1.97 9.28 -2.31 5.94 C-2 3 -2 3 0 0 Z " fill="#070B0A" transform="translate(615,640)"/>
<path d="M0 0 C1.68 0.29 3.34 0.62 5 1 C5 1.66 5 2.32 5 3 C5.66 3 6.32 3 7 3 C7.62 5.38 7.62 5.38 8 8 C7.34 8.66 6.68 9.32 6 10 C3.22 9.79 1.45 9.3 -0.88 7.75 C-2 6 -2 6 -1.75 3.38 C-1 1 -1 1 0 0 Z " fill="#070B0A" transform="translate(618,695)"/>
<path d="M0 0 C2.62 0.38 2.62 0.38 5 1 C6.12 4.75 6.12 4.75 5 7 C3.02 7 1.04 7 -1 7 C-1.62 4.62 -1.62 4.62 -2 2 C-1.34 1.34 -0.68 0.68 0 0 Z " fill="#070B0A" transform="translate(420,736)"/>
</svg>
